# xmcd
#
# Track frame offsets: 
#        150
#        13182
#        25864
#        34724
#        51383
#        66368
#        76859
#        88862
#
# Disc length: 1340 seconds
#
# Revision: 0
# Processed by: cddbd v1.5.2PL0 Copyright (c) Steve Scherf et al.
# Submitted via: ExactAudioCopy v0.99pb4
#
DISCID=62053a08
DTITLE=Patsy Cline - The Legendary Patsy Cline [CD2]
DYEAR=1991
DGENRE=Classic Country
TTITLE0=Imagine That
TTITLE1=When You Need a Laugh
TTITLE2=Anytime
TTITLE3=Faded Love
TTITLE4=The Wayward Wind
TTITLE5=Your Cheatin' Heart
TTITLE6=He Called Me Baby
TTITLE7=A Poor Man's Roses (Or a Rich Man's Gold)
EXTD=
EXTT0=
EXTT1=
EXTT2=
EXTT3=
EXTT4=
EXTT5=
EXTT6=
EXTT7=
PLAYORDER=
